<?xml version="1.0" encoding="utf-8"?>
<!-- Svg Vector Icons : http://www.onlinewebfonts.com/icon -->
<!DOCTYPE svg PUBLIC "-//W3C//DTD SVG 1.1//EN" "http://www.w3.org/Graphics/SVG/1.1/DTD/svg11.dtd">
<svg version="1.1" xmlns="http://www.w3.org/2000/svg" xmlns:xlink="http://www.w3.org/1999/xlink" x="0px" y="0px" viewBox="0 0 1000 1000" enable-background="new 0 0 1000 1000" xml:space="preserve">
<metadata> Svg Vector Icons : http://www.onlinewebfonts.com/icon </metadata>
<g><g><g id="_x35_8_24_"><g><path d="M435.4,562.2c-1.5,3.8-3.4,7.1-5.7,9.9c-2.3,2.8-5.2,5-8.6,6.5c-3.4,1.6-7.6,2.3-12.4,2.3c-6.8,0-12.4-1.5-17-4.4c-4.5-3-8.1-6.9-10.8-11.8c-2.7-4.8-4.7-10.4-5.9-16.4c-1.2-6.1-1.8-12.3-1.8-18.5c0-6.3,0.6-12.4,1.8-18.6c1.2-6.1,3.2-11.6,5.9-16.4c2.7-4.9,6.3-8.8,10.8-11.8s10.2-4.4,17-4.4c5.9,0,10.7,1.1,14.5,3.4c3.7,2.3,6.7,4.9,9,7.8c2.3,3,3.8,5.9,4.7,9c0.9,3,1.5,5.4,1.8,7.2h55.9c-2.4-23.5-10.7-41.6-24.7-54.4c-14-12.8-33.9-19.3-59.6-19.5c-14.4,0-27.5,2.3-39,7c-11.6,4.7-21.5,11.3-29.8,19.8c-8.3,8.5-14.6,18.8-19.1,30.8c-4.4,12-6.7,25.3-6.7,39.9c0,13.7,2.1,26.6,6.3,38.5c4.2,11.9,10.3,22.2,18.4,30.9c8.1,8.7,17.9,15.6,29.6,20.6c11.7,5,25.1,7.6,40.2,7.6c13.6,0,25.7-2.3,36.3-6.8c10.6-4.5,19.5-10.5,26.7-17.9c7.2-7.4,12.7-15.7,16.5-24.9c3.7-9.2,5.6-18.5,5.6-27.9h-56.4C438,554.3,436.9,558.4,435.4,562.2z"/><polygon points="589,549.7 588.5,549.7 557.9,436.7 500,436.7 555.6,623 619.8,623 678,436.7 619,436.7 "/><path d="M737.1,10H122.6v980h754.7V146L737.1,10z M812.1,924.7H187.9V75.3h515.6v103.5h108.6L812.1,924.7L812.1,924.7z"/></g></g></g><g></g><g></g><g></g><g></g><g></g><g></g><g></g><g></g><g></g><g></g><g></g><g></g><g></g><g></g><g></g></g>
</svg>