<?xml version="1.0" encoding="utf-8"?>
<!-- Svg Vector Icons : http://www.onlinewebfonts.com/icon -->
<!DOCTYPE svg PUBLIC "-//W3C//DTD SVG 1.1//EN" "http://www.w3.org/Graphics/SVG/1.1/DTD/svg11.dtd">
<svg version="1.1" xmlns="http://www.w3.org/2000/svg" xmlns:xlink="http://www.w3.org/1999/xlink" x="0px" y="0px" viewBox="0 0 1000 1000" enable-background="new 0 0 1000 1000" xml:space="preserve">
<metadata> Svg Vector Icons : http://www.onlinewebfonts.com/icon </metadata>
<g><path d="M891.4,135.9H108.6c-54.3,0-98.6,44.2-98.6,98.5v531.1c0,54.3,44.2,98.5,98.6,98.5h782.9c54.3,0,98.6-44.2,98.6-98.5V234.5C990,180.1,945.8,135.9,891.4,135.9z M869.6,244.5L508.8,543.1c-4.7,1.4-12.9,1.4-17.6,0L130.3,244.5H869.6z M118.5,755.5v-380L427,630.8l7.1,5c19.1,11.2,42.5,16.9,65.9,16.9c23.4,0,46.8-5.6,65.9-16.8l3.8-2.2l311.8-258v380L118.5,755.5L118.5,755.5z"/></g>
</svg>